<svg width="8" height="6" viewBox="0 0 8 6" fill="none" xmlns="http://www.w3.org/2000/svg">
<path d="M7.99986 0.627298C8.00246 0.505017 7.96819 0.384936 7.90175 0.283749C7.83531 0.182562 7.73999 0.105298 7.62913 0.0626987C7.51827 0.0200993 7.39734 0.0142813 7.28314 0.0460534C7.16893 0.0778255 7.06718 0.145609 6.99194 0.23998L4.0092 3.84077L1.02751 0.23998C0.981114 0.174699 0.922215 0.120027 0.854445 0.0793893C0.786676 0.0387513 0.711502 0.0130226 0.633672 0.00381377C0.555842 -0.00539501 0.477028 0.00211484 0.402135 0.0258729C0.327241 0.049631 0.257876 0.0891253 0.198425 0.141883C0.138974 0.194641 0.0907488 0.259525 0.0566673 0.332473C0.0225863 0.40542 0.00344417 0.48486 0.000423884 0.565817C-0.00259593 0.646773 0.0105343 0.727502 0.0390792 0.802948C0.0676241 0.878395 0.110923 0.946934 0.166267 1.00427L3.57691 5.12685C3.63033 5.19159 3.69663 5.24358 3.77136 5.27923C3.84609 5.31487 3.92743 5.33333 4.00972 5.33333C4.09202 5.33333 4.17336 5.31487 4.24809 5.27923C4.32282 5.24358 4.38919 5.19159 4.44261 5.12685L7.85653 1.00427C7.94597 0.90013 7.99682 0.766552 7.99999 0.627298L7.99986 0.627298Z" fill="#A0A0A0"/>
</svg>
